<svg width="28" height="28" viewBox="0 0 28 28" fill="none" xmlns="http://www.w3.org/2000/svg">
<path d="M14 13.074C14.8307 13.074 15.6427 12.8278 16.3334 12.3666C17.0241 11.9054 17.5624 11.2499 17.8803 10.4829C18.1982 9.71597 18.2814 8.87203 18.1193 8.05784C17.9572 7.24364 17.5572 6.49575 16.9699 5.90875C16.3825 5.32175 15.6341 4.922 14.8194 4.76004C14.0047 4.59809 13.1602 4.68121 12.3927 4.99889C11.6253 5.31658 10.9693 5.85455 10.5078 6.5448C10.0463 7.23504 9.80001 8.04654 9.80001 8.87669C9.80001 9.98988 10.2425 11.0575 11.0302 11.8446C11.8178 12.6318 12.8861 13.074 14 13.074V13.074ZM14 6.54486C14.4615 6.54486 14.9126 6.68162 15.2963 6.93784C15.6801 7.19407 15.9791 7.55825 16.1557 7.98433C16.3323 8.41042 16.3785 8.87927 16.2885 9.33161C16.1985 9.78394 15.9762 10.1994 15.6499 10.5255C15.3236 10.8517 14.9078 11.0737 14.4552 11.1637C14.0026 11.2537 13.5334 11.2075 13.1071 11.031C12.6807 10.8545 12.3163 10.5557 12.0599 10.1722C11.8035 9.78872 11.6667 9.33788 11.6667 8.87669C11.6667 8.25825 11.9125 7.66514 12.3501 7.22783C12.7877 6.79053 13.3812 6.54486 14 6.54486V6.54486ZM24.6773 23.0402C26.1355 21.322 27.1568 19.2772 27.6545 17.0798C28.1523 14.8825 28.1116 12.5975 27.5361 10.4192C26.9605 8.24085 25.8671 6.23366 24.3488 4.56827C22.8305 2.90288 20.9322 1.62854 18.8153 0.853631C16.6985 0.0787197 14.4256 -0.173848 12.1901 0.117405C9.95464 0.408658 7.82259 1.23512 5.97528 2.5265C4.12796 3.81789 2.62004 5.53601 1.57972 7.53475C0.539406 9.5335 -0.00252585 11.7538 8.85061e-06 14.0067C-0.00317945 17.317 1.17493 20.52 3.32268 23.0402C3.36265 23.1 3.40965 23.1548 3.46268 23.2035C4.7742 24.7095 6.39365 25.917 8.21181 26.7444C10.03 27.5718 12.0045 28 14.0023 28C16.0001 28 17.9747 27.5718 19.7929 26.7444C21.611 25.917 23.2305 24.7095 24.542 23.2035C24.5948 23.1558 24.6403 23.1009 24.6773 23.0402V23.0402ZM14 1.8812C16.1789 1.88237 18.3173 2.46989 20.1906 3.58204C22.0638 4.6942 23.6028 6.28994 24.646 8.20169C25.6891 10.1134 26.1979 12.2706 26.1188 14.4467C26.0398 16.6227 25.3758 18.7374 24.1967 20.5685C23.3069 18.6117 21.8723 16.9523 20.0641 15.7886C18.2559 14.6249 16.1507 14.0061 14 14.0061C11.8493 14.0061 9.7441 14.6249 7.93592 15.7886C6.12774 16.9523 4.69307 18.6117 3.80334 20.5685C2.62422 18.7374 1.96026 16.6227 1.8812 14.4467C1.80214 12.2706 2.3109 10.1134 3.35404 8.20169C4.39717 6.28994 5.9362 4.6942 7.80946 3.58204C9.68273 2.46989 11.8211 1.88237 14 1.8812V1.8812ZM14 26.1322C12.3364 26.1345 10.6902 25.7936 9.16446 25.1307C7.63876 24.4679 6.26642 23.4974 5.13334 22.28C5.7471 20.4139 6.93471 18.7891 8.52686 17.6372C10.119 16.4853 12.0344 15.8652 14 15.8652C15.9656 15.8652 17.881 16.4853 19.4732 17.6372C21.0653 18.7891 22.2529 20.4139 22.8667 22.28C21.7336 23.4974 20.3613 24.4679 18.8356 25.1307C17.3099 25.7936 15.6636 26.1345 14 26.1322Z" fill="white"/>
</svg>
